<?xml version="1.1" encoding="utf-8"?>
<!-- Generator: Adobe Illustrator 18.1.1, SVG Export Plug-In . SVG Version: 6.00 Build 0)  -->
<!DOCTYPE svg PUBLIC "-//W3C//DTD SVG 1.1//EN" "http://www.w3.org/Graphics/SVG/1.1/DTD/svg11.dtd">
<svg version="1.1" id="Layer_1" xmlns="http://www.w3.org/2000/svg" xmlns:xlink="http://www.w3.org/1999/xlink" x="0px" y="0px"
	 width="225px" height="225px" viewBox="0 0 225 225" enable-background="new 0 0 225 225" xml:space="preserve">
<path d="M991 2239 c-263 -32 -501 -154 -685 -350 -148 -157 -243 -345 -287
-569 -18 -91 -15 -328 5 -417 67 -302 239 -554 493 -720 296 -194 675 -234
1008 -107 453 174 752 632 720 1104 -35 526 -392 940 -901 1045 -95 20 -259
26 -353 14z m392 -203 c159 -47 276 -115 396 -230 126 -122 212 -266 261 -436
33 -114 38 -306 12 -432 -37 -178 -113 -324 -236 -455 -181 -192 -390 -289
-651 -300 -280 -12 -512 79 -710 281 -142 145 -217 284 -257 474 -26 126 -21
318 12 432 79 275 267 497 522 614 148 69 238 86 423 81 115 -2 156 -8 228
-29z"/>
	<path d="M975 1864 c-284 -63 -497 -263 -577 -541 -32 -109 -32 -285 0 -396
74 -260 269 -455 529 -529 110 -31 286 -31 396 0 544 155 736 815 358 1233
-93 103 -218 181 -353 219 -99 28 -261 35 -353 14z m147 -381 c109 -109 198
-204 198 -211 0 -14 -94 -62 -122 -62 -9 0 -20 5 -23 10 -3 6 -27 10 -51 10
-37 0 -51 -6 -75 -29 -16 -16 -29 -39 -29 -50 0 -14 -13 -26 -46 -41 -56 -24
-90 -26 -98 -4 -3 9 -6 136 -6 283 0 274 2 291 39 291 9 0 105 -89 213 -197z
m252 -339 c3 -9 6 -136 6 -284 0 -284 -3 -300 -47 -286 -10 3 -105 93 -212
200 -216 216 -216 216 -123 249 38 14 55 16 71 8 30 -16 93 -13 118 7 12 9 28
32 36 51 22 53 136 95 151 55z"/>
</svg>
